<svg xmlns="http://www.w3.org/2000/svg" width="14.964" height="14.97" viewBox="0 0 14.964 14.97">
  <g id="Group_2021" data-name="Group 2021" transform="translate(0 0)">
    <path id="Path_2178" data-name="Path 2178" d="M2142.112,1150.314a2.022,2.022,0,0,1-1.443-.6l-10.784-10.783a2.041,2.041,0,0,1,2.887-2.886l10.784,10.783a2.054,2.054,0,0,1,0,2.886A2.141,2.141,0,0,1,2142.112,1150.314Z" transform="translate(-2129.183 -1135.453)" fill="#fff"/>
    <path id="Path_2179" data-name="Path 2179" d="M2131.288,1150.354a2.021,2.021,0,0,1-1.443-.6,2.054,2.054,0,0,1,0-2.886l10.784-10.784a2.041,2.041,0,0,1,2.887,2.886l-10.784,10.783A2.021,2.021,0,0,1,2131.288,1150.354Z" transform="translate(-2129.252 -1135.384)" fill="#fff"/>
  </g>
</svg>
