<svg id="Group_1984" data-name="Group 1984" xmlns="http://www.w3.org/2000/svg" xmlns:xlink="http://www.w3.org/1999/xlink" width="21.494" height="21.35" viewBox="0 0 21.494 21.35">
  <defs>
    <clipPath id="clip-path">
      <rect id="Rectangle_41" data-name="Rectangle 41" width="21.494" height="21.35" transform="translate(0 0)" fill="#6972b5"/>
    </clipPath>
  </defs>
  <g id="Group_1983" data-name="Group 1983" clip-path="url(#clip-path)">
    <path id="Path_2120" data-name="Path 2120" d="M16.41,21.35a4.124,4.124,0,0,1-2.06-.67l-2.99-1.77a1.423,1.423,0,0,0-1.21,0l-3,1.77c-1.77,1.05-2.81.63-3.28.29s-1.18-1.21-.71-3.21l.71-3.07a1.411,1.411,0,0,0-.32-1.11L1.07,11.1A2.715,2.715,0,0,1,.1,8.28,2.747,2.747,0,0,1,2.53,6.55l3.19-.53a1.43,1.43,0,0,0,.86-.64L8.35,1.85C9.15.24,10.2,0,10.75,0s1.6.24,2.4,1.85l1.76,3.52a1.48,1.48,0,0,0,.87.64l3.19.53A2.717,2.717,0,0,1,21.4,8.27a2.757,2.757,0,0,1-.97,2.82l-2.48,2.49a1.439,1.439,0,0,0-.32,1.11l.71,3.07c.46,2-.25,2.87-.71,3.21a2.046,2.046,0,0,1-1.22.38m-5.66-4.08a2.737,2.737,0,0,1,1.37.35l2.99,1.77c.87.52,1.42.52,1.63.37s.36-.68.14-1.66l-.71-3.07a2.925,2.925,0,0,1,.72-2.51l2.48-2.48c.49-.49.71-.97.61-1.3s-.57-.6-1.25-.71L15.54,7.5a2.931,2.931,0,0,1-1.96-1.45L11.82,2.53c-.32-.64-.72-1.02-1.07-1.02S10,1.89,9.69,2.53L7.92,6.05A2.931,2.931,0,0,1,5.96,7.5l-3.18.53c-.68.11-1.14.38-1.25.71s.12.82.61,1.3l2.48,2.48a2.917,2.917,0,0,1,.72,2.51L4.63,18.1c-.23.99-.07,1.51.14,1.66s.75.14,1.63-.37l2.99-1.77a2.673,2.673,0,0,1,1.36-.35" fill="#6972b5"/>
  </g>
</svg>
