<svg id="Faccebook_Logo" data-name="Faccebook Logo" xmlns="http://www.w3.org/2000/svg" xmlns:xlink="http://www.w3.org/1999/xlink" width="30.513" height="30.513" viewBox="0 0 30.513 30.513">
  <defs>
    <clipPath id="clip-path">
      <rect id="Rectangle_32" data-name="Rectangle 32" width="30.513" height="30.513" fill="#fafafa"/>
    </clipPath>
  </defs>
  <g id="Group_25" data-name="Group 25" clip-path="url(#clip-path)">
    <path id="Path_19" data-name="Path 19" d="M16.225,28.836H9.838V18.547H8.49A1.49,1.49,0,0,1,7,17.057v-2.7a1.49,1.49,0,0,1,1.49-1.49H9.838V9.322A5.324,5.324,0,0,1,15.161,4h3.832a1.49,1.49,0,0,1,1.49,1.49V8.9a1.49,1.49,0,0,1-1.49,1.49H16.225V12.87h2.668a1.486,1.486,0,0,1,1.462,1.774l-.539,2.7a1.49,1.49,0,0,1-1.462,1.192H16.225Zm-4.258-2.129H14.1V16.418h3.747L18.127,15H14.11V9.748a1.49,1.49,0,0,1,1.49-1.49h2.767V6.129H15.161a3.2,3.2,0,0,0-3.193,3.193V15H9.129v1.419h2.838Z" transform="translate(2.935 1.677)" fill="#fafafa"/>
    <path id="Path_20" data-name="Path 20" d="M19.514,30.513H11c-7.706,0-11-3.293-11-11V11C0,3.293,3.293,0,11,0h8.515c7.706,0,11,3.293,11,11v8.515c0,7.706-3.293,11-11,11M11,2.129c-6.543,0-8.87,2.328-8.87,8.87v8.515c0,6.543,2.328,8.87,8.87,8.87h8.515c6.543,0,8.87-2.328,8.87-8.87V11c0-6.543-2.328-8.87-8.87-8.87Z" transform="translate(0 0)" fill="#fafafa"/>
  </g>
</svg>
