<svg id="Instagram_Logo" data-name="Instagram Logo" xmlns="http://www.w3.org/2000/svg" xmlns:xlink="http://www.w3.org/1999/xlink" width="32.811" height="32.811" viewBox="0 0 32.811 32.811">
  <defs>
    <clipPath id="clip-path">
      <rect id="Rectangle_30" data-name="Rectangle 30" width="32.811" height="32.811" fill="#fafafa"/>
    </clipPath>
  </defs>
  <g id="Group_21" data-name="Group 21" clip-path="url(#clip-path)">
    <path id="Path_12" data-name="Path 12" d="M20.984,32.811H11.827C3.541,32.811,0,29.271,0,20.984V11.827C0,3.541,3.541,0,11.827,0h9.157c8.287,0,11.827,3.541,11.827,11.827v9.157c0,8.287-3.541,11.827-11.827,11.827M11.827,2.289c-7.035,0-9.538,2.5-9.538,9.538v9.157c0,7.035,2.5,9.538,9.538,9.538h9.157c7.035,0,9.538-2.5,9.538-9.538V11.827c0-7.035-2.5-9.538-9.538-9.538Z" transform="translate(0 0)" fill="#fafafa"/>
    <path id="Path_13" data-name="Path 13" d="M12.986,19.472a6.486,6.486,0,1,1,6.486-6.486,6.5,6.5,0,0,1-6.486,6.486m0-10.683a4.2,4.2,0,1,0,4.2,4.2,4.194,4.194,0,0,0-4.2-4.2" transform="translate(3.42 3.42)" fill="#fafafa"/>
    <path id="Path_14" data-name="Path 14" d="M16.276,7.3a1.519,1.519,0,0,1-.58-.122,1.762,1.762,0,0,1-.5-.32,1.816,1.816,0,0,1-.336-.5,1.627,1.627,0,0,1,0-1.16,1.935,1.935,0,0,1,.336-.5,2.4,2.4,0,0,1,.229-.183,1.156,1.156,0,0,1,.275-.137.921.921,0,0,1,.29-.092,1.536,1.536,0,0,1,1.373.412,1.575,1.575,0,0,1,.32.5,1.438,1.438,0,0,1,0,1.16,1.762,1.762,0,0,1-.32.5,1.762,1.762,0,0,1-.5.32,1.519,1.519,0,0,1-.58.122" transform="translate(7.76 2.235)" fill="#fafafa"/>
  </g>
</svg>
