<svg xmlns="http://www.w3.org/2000/svg" xmlns:xlink="http://www.w3.org/1999/xlink" width="30.512" height="30.512" viewBox="0 0 30.512 30.512">
  <defs>
    <clipPath id="clip-path">
      <rect id="Rectangle_33" data-name="Rectangle 33" width="30.512" height="30.512" fill="#fafafa"/>
    </clipPath>
  </defs>
  <g id="LinkedIn_Logo" data-name="LinkedIn Logo" transform="translate(-1614.824 -7320.156)">
    <g id="Group_28" data-name="Group 28" transform="translate(1614.824 7320.156)">
      <g id="Group_27" data-name="Group 27" clip-path="url(#clip-path)">
        <path id="Path_21" data-name="Path 21" d="M19.514,30.512H11c-7.706,0-11-3.292-11-11V11C0,3.292,3.292,0,11,0h8.515c7.706,0,11,3.292,11,11v8.515c0,7.706-3.292,11-11,11M11,2.129c-6.542,0-8.87,2.327-8.87,8.87v8.515c0,6.542,2.327,8.87,8.87,8.87h8.515c6.542,0,8.87-2.327,8.87-8.87V11c0-6.542-2.327-8.87-8.87-8.87Z" transform="translate(0 0)" fill="#fafafa"/>
      </g>
    </g>
    <path id="Path_40" data-name="Path 40" d="M2.575-10.424a1.622,1.622,0,0,1-1.151-.417,1.345,1.345,0,0,1-.448-1.024,1.3,1.3,0,0,1,.448-1.02,1.676,1.676,0,0,1,1.151-.4,1.672,1.672,0,0,1,1.156.4,1.3,1.3,0,0,1,.444,1.02,1.34,1.34,0,0,1-.444,1.037A1.65,1.65,0,0,1,2.575-10.424ZM3.946,0H1.169V-9H3.946Zm11.03,0H12.208V-5q0-2.092-1.494-2.092a1.483,1.483,0,0,0-1.187.554,2.109,2.109,0,0,0-.466,1.406V0H6.284V-9H9.062v1.424H9.1A3.183,3.183,0,0,1,11.988-9.22q2.988,0,2.988,3.709Z" transform="translate(1621 7342)" fill="#fff"/>
  </g>
</svg>
