<svg id="Twitter_Logo" data-name="Twitter Logo" xmlns="http://www.w3.org/2000/svg" xmlns:xlink="http://www.w3.org/1999/xlink" width="31.19" height="25.331" viewBox="0 0 31.19 25.331">
  <defs>
    <clipPath id="clip-path">
      <rect id="Rectangle_34" data-name="Rectangle 34" width="31.19" height="25.331" transform="translate(0 0)" fill="#fafafa"/>
    </clipPath>
  </defs>
  <g id="Group_29" data-name="Group 29" transform="translate(0 0)" clip-path="url(#clip-path)">
    <path id="Path_22" data-name="Path 22" d="M11.686,25.329H7.977c-.257-.039-.518-.026-.775-.059a16.075,16.075,0,0,1-1.962-.385A18.151,18.151,0,0,1,.594,22.971c-.17-.1-.343-.2-.508-.306-.038-.025-.08-.046-.087-.1.01-.087.078-.086.139-.085.115,0,.23.016.344.026a11.253,11.253,0,0,0,1.221.044,13.164,13.164,0,0,0,3.4-.516,12.881,12.881,0,0,0,2.478-1.013A12.313,12.313,0,0,0,9.22,19.969a.033.033,0,0,0,.018-.034,1.722,1.722,0,0,0-.422-.053,6.456,6.456,0,0,1-4.081-2.129,6.382,6.382,0,0,1-1.28-2.18c-.052-.148,0-.215.158-.189a6.516,6.516,0,0,0,.994.092,6.272,6.272,0,0,0,1.179-.1,2.108,2.108,0,0,1,.342-.061A5.4,5.4,0,0,1,5.159,15,6.293,6.293,0,0,1,3.4,13.916a6.556,6.556,0,0,1-1.379-1.669,6.384,6.384,0,0,1-.787-2.262,4.891,4.891,0,0,1-.066-.873c.007-.2.047-.233.228-.142a6.689,6.689,0,0,0,1.528.559,7.447,7.447,0,0,0,1.014.151,4,4,0,0,1-.471-.361A6.467,6.467,0,0,1,1.223,4.03a6.38,6.38,0,0,1,.525-2.2,4.246,4.246,0,0,1,.283-.562c.076-.122.149-.128.239-.017A17.313,17.313,0,0,0,3.842,2.926,17.977,17.977,0,0,0,6.016,4.671,18.373,18.373,0,0,0,8.33,6.02a17.96,17.96,0,0,0,1.962.814,18.062,18.062,0,0,0,2.612.7q.874.165,1.76.243c.147.013.3.011.443.034.127.02.162-.015.135-.141a5.779,5.779,0,0,1-.117-1.239,6.3,6.3,0,0,1,.221-1.7A6.5,6.5,0,0,1,18.5.743,5.8,5.8,0,0,1,20.511.055,8.629,8.629,0,0,1,22.038.014a5.267,5.267,0,0,1,.956.093,6.627,6.627,0,0,1,1.984.8,7.051,7.051,0,0,1,1.218.963.237.237,0,0,0,.233.071,12.446,12.446,0,0,0,2.343-.735A13.122,13.122,0,0,0,30.166.516c.05-.029.105-.061.161-.018s.033.112.013.17a6.461,6.461,0,0,1-1.814,2.7,5.27,5.27,0,0,1-.746.569c.4-.055.8-.133,1.2-.228a12.75,12.75,0,0,0,1.937-.631c.042-.017.085-.032.127-.047a.1.1,0,0,1,.124.023.1.1,0,0,1-.006.126,4.505,4.505,0,0,1-.293.413,14.537,14.537,0,0,1-.96,1.143,12.965,12.965,0,0,1-1.748,1.56.231.231,0,0,0-.1.212c.01.181.026.361.025.542a18.754,18.754,0,0,1-.48,4.173,19.293,19.293,0,0,1-1.181,3.507A19,19,0,0,1,24.6,17.942a17.4,17.4,0,0,1-1.341,1.678c-.28.308-.559.616-.86.9A17.816,17.816,0,0,1,18.973,23.1a17.42,17.42,0,0,1-3.482,1.518,17.007,17.007,0,0,1-2.965.649c-.247.031-.5.032-.745.047-.032,0-.066-.011-.1.012" transform="translate(0 0.001)" fill="#fafafa"/>
  </g>
</svg>
