<svg id="YouTube_Logo" data-name="YouTube Logo" xmlns="http://www.w3.org/2000/svg" xmlns:xlink="http://www.w3.org/1999/xlink" width="33.236" height="27.052" viewBox="0 0 33.236 27.052">
  <defs>
    <clipPath id="clip-path">
      <rect id="Rectangle_29" data-name="Rectangle 29" width="33.236" height="27.052" fill="#fafafa"/>
    </clipPath>
  </defs>
  <g id="Group_19" data-name="Group 19" clip-path="url(#clip-path)">
    <path id="Path_10" data-name="Path 10" d="M24.347,27.052H8.889C3.571,27.052,0,23.482,0,18.164V8.889C0,3.571,3.571,0,8.889,0H24.347c5.318,0,8.889,3.571,8.889,8.889v9.275c0,5.318-3.571,8.889-8.889,8.889M8.889,2.319a6.159,6.159,0,0,0-6.57,6.57v9.275a6.159,6.159,0,0,0,6.57,6.57H24.347a6.159,6.159,0,0,0,6.57-6.57V8.889a6.159,6.159,0,0,0-6.57-6.57Z" fill="#fafafa"/>
    <path id="Path_11" data-name="Path 11" d="M10.29,16.123A2.579,2.579,0,0,1,9.022,15.8,3.114,3.114,0,0,1,7.6,12.97V8.394A3.083,3.083,0,0,1,9.022,5.565a3.091,3.091,0,0,1,3.154.247L15.994,8.1a3.081,3.081,0,0,1,1.654,2.582,3.081,3.081,0,0,1-1.654,2.582l-3.818,2.288a3.8,3.8,0,0,1-1.886.572m0-8.595a.309.309,0,0,0-.139.031c-.108.062-.232.34-.232.819v4.576a1.1,1.1,0,0,0,.232.819c.124.062.417.031.819-.216l3.818-2.288c.386-.232.526-.464.526-.6s-.139-.356-.526-.6L10.97,7.776a1.46,1.46,0,0,0-.68-.247" transform="translate(4.148 2.86)" fill="#fafafa"/>
  </g>
</svg>
